<mxfile host="app.diagrams.net" modified="2023-07-03T14:22:38.832Z" agent="Mozilla/5.0 (X11; Linux x86_64) AppleWebKit/537.36 (KHTML, like Gecko) Chrome/114.0.0.0 Safari/537.36" version="21.5.2" etag="iaF0zJ8BbKm3-dSMr8RJ" type="github">
  <diagram name="Page-1" id="cbaoGoT63907dVyWC_Ho">
    <mxGraphModel>
      <root>
        <mxCell id="0" />
        <mxCell id="1" parent="0" />
      </root>
    </mxGraphModel>
  </diagram>
</mxfile>
